<?xml version="1.0" encoding="UTF-8"?>
<svg version="1.1" xmlns="http://www.w3.org/2000/svg" width="480" height="480">
<path d="M0 0 C2.22177566 0.00171856 4.44355335 0.00163789 6.66532898 -0.00012207 C11.28839933 0.00151689 15.91097646 0.01994516 20.53393555 0.05175781 C26.38614374 0.09135876 32.23770722 0.0958013 38.09002399 0.08829498 C42.66928247 0.08518785 47.2484028 0.09747801 51.82762718 0.11442566 C53.98203855 0.12133464 56.13646555 0.12459537 58.29088783 0.12373352 C86.77921989 0.14105727 117.67175051 1.86656575 140.26171875 21.59375 C140.26171875 22.25375 140.26171875 22.91375 140.26171875 23.59375 C141.25171875 23.92375 142.24171875 24.25375 143.26171875 24.59375 C147.6516874 29.28808981 150.57602743 34.80918408 153.26171875 40.59375 C153.76058594 39.9646875 154.25945312 39.335625 154.7734375 38.6875 C164.48551213 27.1097306 176.02393897 21.57550197 190.26171875 17.59375 C191.35484375 17.2740625 192.44796875 16.954375 193.57421875 16.625 C211.92148175 11.76837156 232.98226219 14.76944954 249.94921875 23.15625 C260.95440835 29.64898723 268.08549368 38.57514808 272.26171875 50.59375 C274.80508289 61.08315241 272.9582868 69.88697931 267.7890625 79.265625 C260.2596564 91.01363452 249.90243178 95.13820084 236.72265625 98.1796875 C225.25877175 100.10853156 213.35503718 98.10652643 203.3671875 92.12109375 C198.58693837 88.65341767 194.53254624 84.49999124 191.26171875 79.59375 C190.4863949 73.04123425 189.68014109 65.76990459 192.6875 59.73046875 C195.54790918 56.38005372 197.83295552 54.2640493 202.26171875 53.59375 C204.40444959 53.45144859 206.55197452 53.37353836 208.69921875 53.34375 C210.36791016 53.30507812 210.36791016 53.30507812 212.0703125 53.265625 C216.36004778 53.70667489 218.68416302 55.40281624 222.046875 57.94140625 C224.65733169 61.4919631 223.81735933 66.42332404 223.26171875 70.59375 C221.63671875 73.28125 221.63671875 73.28125 219.26171875 74.59375 C216.01171875 74.84375 216.01171875 74.84375 213.26171875 74.59375 C213.76775867 72.42500748 214.26155688 70.59407373 215.26171875 68.59375 C215.33066595 67.22032169 215.34639583 65.84372898 215.32421875 64.46875 C215.29328125 62.550625 215.29328125 62.550625 215.26171875 60.59375 C208.63105063 59.93343369 208.63105063 59.93343369 202.76171875 62.40625 C199.65992804 66.92969479 198.79019167 69.02973044 199.26171875 74.59375 C201.21681075 80.8500444 205.92398997 84.18228422 211.26171875 87.59375 C220.66828737 91.67584582 231.05833871 90.00456743 240.46875 86.7890625 C245.48377577 84.64277175 247.52061015 82.04851874 249.94921875 77.28125 C253.9631032 66.00414606 255.51844572 53.79937083 250.26171875 42.59375 C245.14972132 34.18458349 237.53743493 26.81708715 227.87890625 24.16015625 C227.01523437 23.97324219 226.1515625 23.78632812 225.26171875 23.59375 C224.17117188 23.35527344 223.080625 23.11679688 221.95703125 22.87109375 C210.29810497 20.8129112 197.7079568 21.50252255 187.26171875 27.59375 C176.50065899 35.65240828 171.46693533 44.41334015 169.26171875 57.59375 C168.07633447 67.78516363 170.28743116 78.13093859 176.51171875 86.40625 C177.73581577 87.82485396 178.98603785 89.22134739 180.26171875 90.59375 C180.87015625 91.28082031 181.47859375 91.96789062 182.10546875 92.67578125 C187.1748665 98.10876285 192.82736369 101.93160177 199.26171875 105.59375 C199.8870752 105.96129395 200.51243164 106.32883789 201.15673828 106.70751953 C203.19482859 107.89224903 205.2541178 109.028523 207.32421875 110.15625 C207.96037109 110.5275 208.59652344 110.89875 209.25195312 111.28125 C215.00460852 114.28925089 219.19328672 113.37578138 225.26171875 111.59375 C226.12466553 111.35019775 226.9876123 111.10664551 227.87670898 110.85571289 C230.58278652 110.06068873 233.26615278 109.21315396 235.94921875 108.34375 C236.90820068 108.0351001 237.86718262 107.7264502 238.85522461 107.40844727 C262.13164771 99.90046822 262.13164771 99.90046822 282.81640625 87.34375 C287.61810818 83.62630334 292.40155148 82.04652178 298.26171875 80.59375 C298.90367187 80.41070312 299.545625 80.22765625 300.20703125 80.0390625 C311.42137012 77.60857841 321.74585503 81.06747235 332.26171875 84.59375 C332.26171875 85.91375 332.26171875 87.23375 332.26171875 88.59375 C329.10019078 90.06340886 325.9316624 91.51734322 322.76171875 92.96875 C321.87484375 93.38125 320.98796875 93.79375 320.07421875 94.21875 C313.24858238 97.33043717 306.78516578 99.51342684 299.26171875 100.21875 C298.11703125 100.33089844 298.11703125 100.33089844 296.94921875 100.4453125 C296.39234375 100.49429688 295.83546875 100.54328125 295.26171875 100.59375 C296.25171875 101.191875 297.24171875 101.79 298.26171875 102.40625 C299.25171875 103.128125 300.24171875 103.85 301.26171875 104.59375 C301.26171875 105.58375 301.26171875 106.57375 301.26171875 107.59375 C299.67848187 107.620943 298.09510813 107.64023306 296.51171875 107.65625 C295.63 107.66785156 294.74828125 107.67945313 293.83984375 107.69140625 C291.26171875 107.59375 291.26171875 107.59375 289.359375 107.10546875 C277.63622772 104.24563208 264.60909759 107.69355144 253.26171875 110.59375 C254.18210937 110.48675781 255.1025 110.37976563 256.05078125 110.26953125 C273.02652438 108.66184886 285.19881939 112.70423272 298.609375 123.04296875 C299.42728516 123.81060547 299.42728516 123.81060547 300.26171875 124.59375 C300.26171875 125.25375 300.26171875 125.91375 300.26171875 126.59375 C300.92171875 126.59375 301.58171875 126.59375 302.26171875 126.59375 C304.3034136 129.49923882 305.26171875 130.99517046 305.26171875 134.59375 C293.54690566 138.4986877 282.38670487 132.32051634 271.99609375 127.3671875 C257.81439075 120.60951186 242.15779231 114.35253053 226.26171875 118.59375 C226.94049072 118.88507813 227.6192627 119.17640625 228.31860352 119.4765625 C269.3030918 137.12608229 269.3030918 137.12608229 283.26171875 152.59375 C283.26171875 153.25375 283.26171875 153.91375 283.26171875 154.59375 C283.92171875 154.59375 284.58171875 154.59375 285.26171875 154.59375 C286.8828125 156.82421875 286.8828125 156.82421875 288.69921875 159.78125 C289.29605469 160.74417969 289.89289063 161.70710937 290.5078125 162.69921875 C291.37599609 164.13201172 291.37599609 164.13201172 292.26171875 165.59375 C292.79667969 166.439375 293.33164062 167.285 293.8828125 168.15625 C297.36215623 174.30670464 298.83286337 181.58911211 299.26171875 188.59375 C299.31457031 189.40199219 299.36742187 190.21023438 299.421875 191.04296875 C299.84730625 203.71342106 296.46077393 214.64007968 290.26171875 225.59375 C289.60171875 225.59375 288.94171875 225.59375 288.26171875 225.59375 C288.26171875 226.58375 288.26171875 227.57375 288.26171875 228.59375 C287.60171875 228.59375 286.94171875 228.59375 286.26171875 228.59375 C285.95234375 229.2125 285.64296875 229.83125 285.32421875 230.46875 C284.63671875 231.84375 283.94921875 233.21875 283.26171875 234.59375 C282.60171875 234.59375 281.94171875 234.59375 281.26171875 234.59375 C280.93171875 235.58375 280.60171875 236.57375 280.26171875 237.59375 C279.60171875 237.59375 278.94171875 237.59375 278.26171875 237.59375 C277.93171875 238.58375 277.60171875 239.57375 277.26171875 240.59375 C275.09995135 242.18647686 272.97647765 243.62420117 270.69921875 245.03125 C270.055896 245.43375977 269.41257324 245.83626953 268.74975586 246.25097656 C246.24209789 260.20066533 220.01435421 265.24568834 194.11743164 259.36230469 C178.27072545 255.49974202 163.74780349 249.7101006 150.38671875 240.28125 C149.77304443 239.84852783 149.15937012 239.41580566 148.52709961 238.9699707 C147.06338993 237.8996475 145.65611896 236.75292464 144.26171875 235.59375 C144.26171875 234.93375 144.26171875 234.27375 144.26171875 233.59375 C143.27171875 233.59375 142.28171875 233.59375 141.26171875 233.59375 C141.26171875 232.93375 141.26171875 232.27375 141.26171875 231.59375 C140.60171875 231.59375 139.94171875 231.59375 139.26171875 231.59375 C139.26171875 230.93375 139.26171875 230.27375 139.26171875 229.59375 C138.689375 229.3359375 138.11703125 229.078125 137.52734375 228.8125 C135.0504288 227.48009058 133.12760215 225.94318882 131.01171875 224.09375 C130.3053125 223.4853125 129.59890625 222.876875 128.87109375 222.25 C127.26171875 220.59375 127.26171875 220.59375 127.26171875 218.59375 C126.62234375 218.325625 125.98296875 218.0575 125.32421875 217.78125 C123.26171875 216.59375 123.26171875 216.59375 122.26171875 213.59375 C121.60171875 213.59375 120.94171875 213.59375 120.26171875 213.59375 C118.67578125 211.984375 118.67578125 211.984375 116.88671875 209.84375 C114.92414148 207.52471298 113.00288925 205.34155716 110.82421875 203.21875 C109.26171875 201.59375 109.26171875 201.59375 109.26171875 199.59375 C108.60171875 199.59375 107.94171875 199.59375 107.26171875 199.59375 C105.640625 197.94921875 105.640625 197.94921875 103.82421875 195.78125 C101.28832543 192.76911735 101.28832543 192.76911735 98.5390625 189.95703125 C97.26171875 188.59375 97.26171875 188.59375 97.26171875 186.59375 C96.27171875 186.26375 95.28171875 185.93375 94.26171875 185.59375 C92.47265625 183.6328125 92.47265625 183.6328125 90.63671875 181.21875 C90.02570313 180.42726563 89.4146875 179.63578125 88.78515625 178.8203125 C87.26171875 176.59375 87.26171875 176.59375 86.26171875 173.59375 C85.60171875 173.59375 84.94171875 173.59375 84.26171875 173.59375 C83.93171875 172.93375 83.60171875 172.27375 83.26171875 171.59375 C82.93171875 172.25375 82.60171875 172.91375 82.26171875 173.59375 C75.51137361 175.38060607 68.31616142 175.87516567 61.38671875 176.71875 C60.67386719 176.80640625 59.96101562 176.8940625 59.2265625 176.984375 C55.21047161 177.45153754 51.30091398 177.62736824 47.26171875 177.59375 C47.35673106 182.17983214 47.46310672 186.76547472 47.57910156 191.35107422 C47.61690137 192.90439022 47.65182989 194.45777931 47.68359375 196.01123047 C48.19007139 220.49625909 52.05586337 245.48645495 69.5546875 264.05078125 C72.27264893 266.50751984 75.25437444 268.50702129 78.26171875 270.59375 C78.26171875 271.25375 78.26171875 271.91375 78.26171875 272.59375 C78.78636719 272.820625 79.31101563 273.0475 79.8515625 273.28125 C83.10242355 275.05157303 85.92514242 277.31101273 88.82421875 279.59375 C94.15521928 284.49987715 94.15521928 284.49987715 100.5625 286.50390625 C104.05374177 285.3266858 106.62020006 283.31474716 109.44921875 281.03125 C115.01797823 276.59375 115.01797823 276.59375 117.26171875 276.59375 C117.26171875 275.93375 117.26171875 275.27375 117.26171875 274.59375 C118.91171875 273.93375 120.56171875 273.27375 122.26171875 272.59375 C122.26171875 271.93375 122.26171875 271.27375 122.26171875 270.59375 C122.92171875 270.59375 123.58171875 270.59375 124.26171875 270.59375 C124.26171875 269.93375 124.26171875 269.27375 124.26171875 268.59375 C128.73230699 264.59375 128.73230699 264.59375 131.26171875 264.59375 C131.52984375 264.02140625 131.79796875 263.4490625 132.07421875 262.859375 C133.30304511 260.51490366 134.68694051 258.46970062 136.26171875 256.34375 C136.77734375 255.63734375 137.29296875 254.9309375 137.82421875 254.203125 C138.29859375 253.67203125 138.77296875 253.1409375 139.26171875 252.59375 C139.92171875 252.59375 140.58171875 252.59375 141.26171875 252.59375 C141.52984375 251.995625 141.79796875 251.3975 142.07421875 250.78125 C143.28665371 248.54781717 144.20824148 247.09436801 146.26171875 245.59375 C148.44921875 245.90625 148.44921875 245.90625 150.26171875 246.59375 C149.80674223 251.35350438 147.56259287 254.11963323 144.51171875 257.59375 C144.08117187 258.10164063 143.650625 258.60953125 143.20703125 259.1328125 C140.37187584 262.44332331 137.36846497 265.5395714 134.26171875 268.59375 C133.53984375 269.356875 132.81796875 270.12 132.07421875 270.90625 C130.26171875 272.59375 130.26171875 272.59375 128.26171875 272.59375 C128.05933594 273.15191406 127.85695312 273.71007812 127.6484375 274.28515625 C125.73300296 277.47395009 123.02170711 279.36202408 120.07421875 281.53125 C119.49067627 281.97001465 118.90713379 282.4087793 118.3059082 282.86083984 C114.33628053 285.83488556 110.32971447 288.75561345 106.26171875 291.59375 C106.79539063 291.87347656 107.3290625 292.15320313 107.87890625 292.44140625 C112.07425309 294.69876415 115.9934593 297.07057747 119.82421875 299.90625 C126.51886503 304.67631481 133.83604992 308.12337584 141.26171875 311.59375 C142.27274658 312.06627197 142.27274658 312.06627197 143.30419922 312.54833984 C158.73497851 319.68259939 174.2500375 325.12226914 191.26171875 326.71875 C192.51855469 326.84830078 192.51855469 326.84830078 193.80078125 326.98046875 C216.37421719 329.18190291 238.92978678 324.49521237 257.07421875 310.28125 C267.28472168 301.4811187 274.62884644 290.20868534 276.26171875 276.59375 C276.69130371 270.30535736 276.26235806 264.64379294 274.70703125 258.54296875 C274.17029954 256.19359049 274.10683993 253.99437176 274.26171875 251.59375 C276.87260985 251.94446672 277.98819661 252.26861991 279.7109375 254.31640625 C284.76107436 263.85909387 285.95905797 277.04790293 283.26171875 287.59375 C277.55790662 304.96661111 266.30164196 316.19858551 250.26171875 324.59375 C248.84632813 325.34785156 248.84632813 325.34785156 247.40234375 326.1171875 C218.86244019 339.83026311 183.07550931 338.76400549 153.54296875 328.77734375 C152.46015625 328.38675781 151.37734375 327.99617188 150.26171875 327.59375 C148.79300314 327.08453622 147.32425022 326.57543005 145.85546875 326.06640625 C132.05342844 321.20321924 118.42949412 315.67229275 106.14453125 307.625 C104.18097758 306.35355936 104.18097758 306.35355936 101.26171875 306.59375 C99.26808894 308.26296677 99.26808894 308.26296677 97.13671875 310.46875 C78.14541432 327.97377843 50.6106411 336.64124337 25.26171875 338.59375 C24.30523437 338.67238281 23.34875 338.75101562 22.36328125 338.83203125 C12.44101883 339.12938612 2.88965552 336.74217981 -6.73828125 334.59375 C-6.73828125 333.27375 -6.73828125 331.95375 -6.73828125 330.59375 C-2.28035926 330.52298933 2.02812482 330.50371679 6.44921875 331.09375 C27.39396095 333.59840721 49.21990658 329.45308255 68.26171875 320.59375 C68.92945313 320.29984375 69.5971875 320.0059375 70.28515625 319.703125 C78.57105311 315.85735009 87.2685112 310.44383709 94.26171875 304.59375 C95.05795697 302.49959196 95.05795697 302.49959196 95.26171875 300.59375 C91.80802344 302.15613598 88.90601283 303.78302564 86.07421875 306.28125 C83.26171875 308.59375 83.26171875 308.59375 80.26171875 308.59375 C80.26171875 309.25375 80.26171875 309.91375 80.26171875 310.59375 C77.80597072 311.84904552 75.34730327 313.09799626 72.88671875 314.34375 C72.20738281 314.69179688 71.52804688 315.03984375 70.828125 315.3984375 C62.06198879 319.82246886 53.33445568 323.08248989 43.76171875 325.28125 C42.45267578 325.59932617 42.45267578 325.59932617 41.1171875 325.92382812 C25.50310002 329.59024718 10.03083384 329.24161211 -5.73828125 326.59375 C-7.37603516 326.33658203 -7.37603516 326.33658203 -9.046875 326.07421875 C-19.10955647 324.16514209 -29.95580992 319.42524603 -37.73828125 312.59375 C-37.73828125 311.93375 -37.73828125 311.27375 -37.73828125 310.59375 C-38.85203125 310.2534375 -38.85203125 310.2534375 -39.98828125 309.90625 C-47.6282259 306.25991278 -52.70203757 295.22996801 -55.73828125 287.59375 C-56.96062552 282.35176306 -56.95956772 277.26491208 -56.98828125 271.90625 C-57.00890625 270.96330078 -57.02953125 270.02035156 -57.05078125 269.04882812 C-57.09812384 260.43839484 -55.49881 252.71048217 -50.86328125 245.34375 C-50.39148438 244.57546875 -49.9196875 243.8071875 -49.43359375 243.015625 C-35.99361591 223.81565666 -8.02646004 213.09624247 14.26171875 208.59375 C15.58171875 208.59375 16.90171875 208.59375 18.26171875 208.59375 C18.26171875 200.01375 18.26171875 191.43375 18.26171875 182.59375 C-6.40427346 188.65915792 -27.61799522 198.64416232 -45.73828125 216.59375 C-46.66640625 217.50253906 -46.66640625 217.50253906 -47.61328125 218.4296875 C-57.81470379 229.35186272 -63.89714484 244.14876171 -63.8359375 258.9609375 C-63.83381508 259.98031906 -63.83381508 259.98031906 -63.83164978 261.02029419 C-63.82609643 263.16982612 -63.81355294 265.31925008 -63.80078125 267.46875 C-63.79576021 268.93489432 -63.79119836 270.40104029 -63.78710938 271.8671875 C-63.77614236 275.44274283 -63.75891044 279.01823586 -63.73828125 282.59375 C-65.05828125 282.59375 -66.37828125 282.59375 -67.73828125 282.59375 C-70.347336 274.62295896 -71.20524722 267.39504434 -71.11328125 259.03125 C-71.12488281 257.97228516 -71.13648438 256.91332031 -71.1484375 255.82226562 C-71.08929806 239.82504745 -64.28757724 226.39333292 -53.73828125 214.59375 C-53.0834375 213.85640625 -52.42859375 213.1190625 -51.75390625 212.359375 C-40.95990239 200.91610775 -27.9509448 193.03313285 -13.73828125 186.59375 C-13.13097168 186.31160645 -12.52366211 186.02946289 -11.89794922 185.73876953 C-2.6309284 181.44553056 7.90037094 176.59375 18.26171875 176.59375 C18.15259555 162.48987421 18.03953233 148.38603421 17.92237949 134.28222275 C17.86804159 127.72787405 17.81480178 121.1735209 17.7644043 114.61914062 C17.64847755 99.62768213 17.51128445 84.63668199 17.33966064 69.64575195 C17.28691803 65.01867314 17.24165644 60.39162416 17.20330811 55.7644043 C17.15892393 50.5271892 17.09529448 45.29057519 17.0157299 40.0537796 C16.98990724 38.15376958 16.97075666 36.2536555 16.95874214 34.353508 C16.94122721 31.77051135 16.89947427 29.18902593 16.85131836 26.60644531 C16.85215203 25.48633183 16.85215203 25.48633183 16.85300255 24.34358978 C16.72708907 19.49515827 15.70432275 17.00212156 12.26171875 13.59375 C-0.98090793 5.20053591 -20.15018744 7.34043931 -34.73828125 10.59375 C-35.52203125 10.76519531 -36.30578125 10.93664062 -37.11328125 11.11328125 C-42.98306659 12.65013383 -48.50126474 15.11321074 -54.05078125 17.53125 C-54.82832764 17.86721191 -55.60587402 18.20317383 -56.40698242 18.54931641 C-60.70325179 20.47043891 -64.1066709 22.54810305 -67.73828125 25.59375 C-68.39828125 25.59375 -69.05828125 25.59375 -69.73828125 25.59375 C-69.73828125 26.25375 -69.73828125 26.91375 -69.73828125 27.59375 C-70.39828125 27.59375 -71.05828125 27.59375 -71.73828125 27.59375 C-71.99867187 28.15707031 -72.2590625 28.72039062 -72.52734375 29.30078125 C-73.85728309 31.81908574 -75.42329121 33.98980062 -77.11328125 36.28125 C-84.3312962 46.64210895 -86.73719793 56.51237554 -85.484375 69.15625 C-84.1900112 75.12664877 -81.14637179 80.40606399 -76.73828125 84.59375 C-76.73828125 85.25375 -76.73828125 85.91375 -76.73828125 86.59375 C-75.74828125 86.965 -75.74828125 86.965 -74.73828125 87.34375 C-71.60585522 88.64892751 -68.61988189 90.13728274 -65.60546875 91.69140625 C-63.59163803 92.71377876 -63.59163803 92.71377876 -60.73828125 93.59375 C-60.73828125 92.27375 -60.73828125 90.95375 -60.73828125 89.59375 C-55.28174138 86.86548006 -45.67586214 87.82552085 -39.85546875 89.34765625 C-34.45819851 91.68037475 -30.03193429 94.65327044 -26.73828125 99.59375 C-26.73828125 100.91375 -26.73828125 102.23375 -26.73828125 103.59375 C-30.20328125 104.08875 -30.20328125 104.08875 -33.73828125 104.59375 C-33.73828125 105.25375 -33.73828125 105.91375 -33.73828125 106.59375 C-32.65546875 106.779375 -32.65546875 106.779375 -31.55078125 106.96875 C-28.78106231 107.5842431 -26.34124585 108.47819374 -23.73828125 109.59375 C-23.47144531 109.00464844 -23.20460938 108.41554688 -22.9296875 107.80859375 C-18.95080809 100.4117917 -11.3408489 95.52497619 -3.5625 92.84375 C0.07343287 91.85773431 3.50091214 91.35869959 7.26171875 91.59375 C7.13671875 93.78125 7.13671875 93.78125 6.26171875 96.59375 C4.30244812 98.3081118 2.30291663 99.97780168 0.26171875 101.59375 C-1.12544821 105.75525089 -0.74749406 109.81197893 -0.61132812 114.14453125 C-0.54860508 117.88577629 -0.6029457 119.39074667 -2.73828125 122.59375 C-5.11328125 122.28125 -5.11328125 122.28125 -7.73828125 121.59375 C-11.76086907 115.55986827 -10.61959281 109.45442154 -9.73828125 102.59375 C-10.39828125 102.59375 -11.05828125 102.59375 -11.73828125 102.59375 C-11.73828125 103.25375 -11.73828125 103.91375 -11.73828125 104.59375 C-12.52203125 105.356875 -13.30578125 106.12 -14.11328125 106.90625 C-16.72966595 109.58492958 -18.04252269 110.94101757 -18.73828125 114.59375 C-17.43731651 118.26855584 -17.43731651 118.26855584 -15.73828125 121.59375 C-15.73828125 122.25375 -15.73828125 122.91375 -15.73828125 123.59375 C-14.99578125 123.779375 -14.25328125 123.965 -13.48828125 124.15625 C-9.67049824 126.1519093 -8.04368212 128.60116754 -6.73828125 132.59375 C-5.48181876 140.86546141 -6.76479775 147.80953222 -11.73828125 154.59375 C-16.50572318 159.58920002 -21.86846256 162.03214885 -28.73828125 162.59375 C-31.80078125 162.21875 -31.80078125 162.21875 -33.73828125 161.59375 C-34.06828125 160.60375 -34.39828125 159.61375 -34.73828125 158.59375 C-35.70765625 159.233125 -36.67703125 159.8725 -37.67578125 160.53125 C-43.27100817 163.70112654 -48.87826019 164.2113007 -55.11328125 162.78125 C-58.73828125 161.59375 -58.73828125 161.59375 -61.73828125 159.59375 C-62.29515625 160.46 -62.85203125 161.32625 -63.42578125 162.21875 C-64.88644986 164.42769096 -66.34300752 166.27804552 -68.11328125 168.28125 C-81.7299242 184.35471844 -87.9456754 206.84041691 -86.35449219 227.56005859 C-86.27489258 228.41680176 -86.19529297 229.27354492 -86.11328125 230.15625 C-86.04399414 230.96400879 -85.97470703 231.77176758 -85.90332031 232.60400391 C-85.32539262 237.73866914 -83.95925344 241.92094273 -81.68701172 246.56005859 C-80.31805006 249.49455437 -79.53803187 252.46139339 -78.73828125 255.59375 C-80.42578125 256.40625 -80.42578125 256.40625 -82.73828125 256.59375 C-89.57120939 250.88345145 -92.36194041 241.89226486 -93.55078125 233.21875 C-93.64809589 231.6788889 -93.70485092 230.13632083 -93.73828125 228.59375 C-93.77695313 227.38976562 -93.815625 226.18578125 -93.85546875 224.9453125 C-94.32496933 203.86626728 -87.74671508 187.80081372 -77.73828125 169.59375 C-77.07828125 169.59375 -76.41828125 169.59375 -75.73828125 169.59375 C-75.42890625 168.975 -75.11953125 168.35625 -74.80078125 167.71875 C-74.11328125 166.34375 -73.42578125 164.96875 -72.73828125 163.59375 C-72.07828125 163.59375 -71.41828125 163.59375 -70.73828125 163.59375 C-70.47015625 162.995625 -70.20203125 162.3975 -69.92578125 161.78125 C-68.75334658 159.62150192 -67.54458843 158.23584744 -65.73828125 156.59375 C-67.38828125 155.27375 -69.03828125 153.95375 -70.73828125 152.59375 C-71.10953125 153.315625 -71.48078125 154.0375 -71.86328125 154.78125 C-75.10798876 159.64831127 -79.17061685 162.84749239 -84.73828125 164.59375 C-88.3671875 164.859375 -88.3671875 164.859375 -92.30078125 164.84375 C-93.60144531 164.84890625 -94.90210938 164.8540625 -96.2421875 164.859375 C-99.40657538 164.61895223 -101.11185647 164.27786971 -103.73828125 162.59375 C-102.51366916 154.57042943 -97.14758958 148.03825098 -91.0390625 142.90234375 C-86.87711004 140.53518912 -82.43710163 140.53328724 -77.73828125 140.59375 C-77.74988281 139.90667969 -77.76148437 139.21960938 -77.7734375 138.51171875 C-77.78246094 137.61066406 -77.79148437 136.70960938 -77.80078125 135.78125 C-77.81238281 134.88792969 -77.82398437 133.99460938 -77.8359375 133.07421875 C-77.73828125 130.59375 -77.73828125 130.59375 -76.73828125 127.59375 C-77.50011719 127.17416016 -77.50011719 127.17416016 -78.27734375 126.74609375 C-86.56732671 121.91803251 -91.80573705 115.82707489 -94.73828125 106.59375 C-95.05078125 103.09375 -95.05078125 103.09375 -94.73828125 100.59375 C-94.24328125 100.09875 -94.24328125 100.09875 -93.73828125 99.59375 C-85.0434773 99.67138218 -76.56040097 102.17103946 -69.73828125 107.59375 C-69.73828125 108.25375 -69.73828125 108.91375 -69.73828125 109.59375 C-69.07828125 109.59375 -68.41828125 109.59375 -67.73828125 109.59375 C-67.73828125 110.25375 -67.73828125 110.91375 -67.73828125 111.59375 C-63.0805192 110.17054493 -58.637468 108.64222977 -54.30078125 106.40625 C-50.73828125 104.59375 -50.73828125 104.59375 -48.73828125 104.59375 C-48.73828125 103.93375 -48.73828125 103.27375 -48.73828125 102.59375 C-49.52203125 102.284375 -50.30578125 101.975 -51.11328125 101.65625 C-53.73828125 100.59375 -53.73828125 100.59375 -55.73828125 99.59375 C-57.52930688 99.51499154 -59.32120521 99.45563792 -61.11328125 99.40625 C-68.09561558 98.89122897 -73.95741015 96.53926814 -79.73828125 92.59375 C-80.06828125 91.60375 -80.39828125 90.61375 -80.73828125 89.59375 C-81.39828125 89.59375 -82.05828125 89.59375 -82.73828125 89.59375 C-91.5058437 79.09380171 -94.43935135 69.14145592 -93.73828125 55.59375 C-92.23585216 40.93890889 -81.43443233 27.98466553 -70.73828125 18.59375 C-50.45191871 3.03769735 -24.72178762 -0.20700024 0 0 Z M49.26171875 7.59375 C48.19532408 31.57195039 48.13737368 55.52221946 48.1930542 79.52001953 C48.20348496 84.50943564 48.20789307 89.49885726 48.21289062 94.48828125 C48.22345444 104.19011803 48.24040489 113.89193127 48.26171875 123.59375 C61.7795148 128.09968202 84.52510708 126.34667012 97.1953125 120.38671875 C104.06600083 116.46634202 104.06600083 116.46634202 110.26171875 111.59375 C110.26171875 110.93375 110.26171875 110.27375 110.26171875 109.59375 C111.25171875 109.26375 112.24171875 108.93375 113.26171875 108.59375 C123.99022927 96.19954419 129.24148624 82.12088054 128.26171875 65.59375 C126.66668809 49.34722343 119.93346335 34.071991 108.0390625 22.7265625 C102.33392783 18.34540423 95.83048645 15.44973595 89.26171875 12.59375 C88.24207031 12.14773437 87.22242188 11.70171875 86.171875 11.2421875 C74.34072756 6.52330804 61.77405433 7.48965271 49.26171875 7.59375 Z M151.26171875 98.59375 C150.74609375 99.274375 150.23046875 99.955 149.69921875 100.65625 C147.16401375 103.71149705 144.47769039 106.14113287 141.45703125 108.69921875 C139.97912304 109.97463775 138.5360836 111.29147611 137.12890625 112.64453125 C125.03759083 124.15078302 108.7483137 127.13603885 92.72021484 129.55517578 C88.55662526 130.1342044 88.55662526 130.1342044 85.26171875 132.59375 C85.66261719 132.97144531 86.06351563 133.34914062 86.4765625 133.73828125 C90.02568868 137.17473676 93.24170602 140.73195034 96.32421875 144.59375 C103.40528841 153.39625211 111.21547878 161.66671358 119.26171875 169.59375 C122.24376037 168.68627095 125.22172793 167.76604053 128.19921875 166.84375 C129.03001953 166.59109375 129.86082031 166.3384375 130.71679688 166.078125 C134.79623285 164.80826166 138.72837839 163.44760011 142.61328125 161.6640625 C157.02213508 155.06164826 172.74110751 150.69248964 188.13671875 147.09375 C189.1620874 146.85092285 190.18745605 146.6080957 191.24389648 146.35791016 C198.55774456 144.72891942 205.78463595 143.99848807 213.26171875 143.59375 C213.26171875 144.91375 213.26171875 146.23375 213.26171875 147.59375 C212.24078125 147.65691406 211.21984375 147.72007812 210.16796875 147.78515625 C193.0765916 149.12079499 176.53546583 153.85103582 160.96484375 160.984375 C154.27095303 163.9908882 147.2665219 166.28881404 140.36328125 168.76171875 C139.07212402 169.23037354 139.07212402 169.23037354 137.75488281 169.70849609 C136.13071841 170.28519215 134.49721947 170.83643588 132.85449219 171.35791016 C130.42334323 172.1197716 130.42334323 172.1197716 127.26171875 173.59375 C126.3673574 175.52215676 126.3673574 175.52215676 126.26171875 177.59375 C127.65950283 179.78720847 127.65950283 179.78720847 129.76171875 181.84375 C130.51195312 182.63910156 131.2621875 183.43445313 132.03515625 184.25390625 C132.76992187 185.02605469 133.5046875 185.79820312 134.26171875 186.59375 C135.30942264 187.81777479 136.35135091 189.04677296 137.38671875 190.28125 C145.41201521 199.44254733 154.13445037 207.98051571 163.6953125 215.5234375 C166.26342148 217.59512359 168.6626039 219.78040947 171.07421875 222.03125 C187.35962431 236.72908458 208.1119826 249.04810608 230.56640625 248.7421875 C239.13558773 248.27026156 248.23836008 244.91219122 254.38671875 238.78125 C255.00546875 238.059375 255.62421875 237.3375 256.26171875 236.59375 C250.97358409 233.43087041 245.98032855 230.96296165 240.01171875 229.3671875 C239.43421875 229.11195313 238.85671875 228.85671875 238.26171875 228.59375 C237.93171875 227.60375 237.60171875 226.61375 237.26171875 225.59375 C244.51590461 225.8355562 249.34119384 227.87087169 255.66015625 231.4140625 C258.29006349 232.9619614 258.29006349 232.9619614 261.26171875 231.59375 C270.27806679 220.5414524 270.81977366 206.23032246 270.26171875 192.59375 C268.9266512 180.1387527 262.72329842 167.26843806 253.44921875 158.78125 C249.00939646 155.20732039 244.2557103 152.32351657 239.26171875 149.59375 C237.89273438 148.82998047 237.89273438 148.82998047 236.49609375 148.05078125 C228.44664405 143.7934718 220.13575524 140.58290914 211.63671875 137.34375 C194.80687754 130.87904937 179.19357919 123.15609717 165.26171875 111.59375 C164.49472656 110.96597656 163.72773438 110.33820313 162.9375 109.69140625 C158.90736919 106.28702588 155.56504938 102.69788805 152.26171875 98.59375 C151.93171875 98.59375 151.60171875 98.59375 151.26171875 98.59375 Z M-48.73828125 117.59375 C-47.25328125 118.58375 -47.25328125 118.58375 -45.73828125 119.59375 C-45.07828125 119.26375 -44.41828125 118.93375 -43.73828125 118.59375 C-45.38828125 118.26375 -47.03828125 117.93375 -48.73828125 117.59375 Z M-62.24609375 125.7734375 C-65.48502537 129.16883925 -67.20850852 131.76775123 -67.48828125 136.53125 C-67.13498208 142.18403679 -64.66901238 145.67244508 -60.73828125 149.59375 C-56.48229694 153.25862538 -51.23056909 153.99852844 -45.73828125 153.59375 C-40.41412344 151.82655073 -35.60920823 149.60570726 -32.73828125 144.59375 C-33.23328125 143.10875 -33.23328125 143.10875 -33.73828125 141.59375 C-34.79015625 142.769375 -34.79015625 142.769375 -35.86328125 143.96875 C-40.59298878 148.28717861 -45.31926803 149.07431265 -51.55859375 148.90625 C-55.10929703 148.3971886 -57.11109358 146.97072932 -59.73828125 144.59375 C-62.3802915 140.54266762 -63.44065009 137.4099935 -62.73828125 132.59375 C-60.73828125 129.34375 -60.73828125 129.34375 -58.73828125 126.59375 C-58.73828125 125.93375 -58.73828125 125.27375 -58.73828125 124.59375 C-60.79482772 124.38835059 -60.79482772 124.38835059 -62.24609375 125.7734375 Z M47.26171875 133.59375 C47.59171875 146.13375 47.92171875 158.67375 48.26171875 171.59375 C59.15171875 170.93375 70.04171875 170.27375 81.26171875 169.59375 C80.60171875 167.94375 79.94171875 166.29375 79.26171875 164.59375 C78.60171875 164.59375 77.94171875 164.59375 77.26171875 164.59375 C77.01421875 164.05234375 76.76671875 163.5109375 76.51171875 162.953125 C74.98183271 160.0654651 73.17020878 157.49598982 71.26171875 154.84375 C70.56046875 153.85890625 69.85921875 152.8740625 69.13671875 151.859375 C68.20859375 150.73789063 68.20859375 150.73789063 67.26171875 149.59375 C66.60171875 149.59375 65.94171875 149.59375 65.26171875 149.59375 C65.04128906 149.05105469 64.82085937 148.50835937 64.59375 147.94921875 C62.8247802 144.82109913 60.46662508 142.43034267 57.94921875 139.90625 C57.23862305 139.15891602 57.23862305 139.15891602 56.51367188 138.39648438 C53.25259179 135.10863756 52.04328074 134.5500624 47.26171875 133.59375 Z M-19.73828125 135.59375 C-20.07601562 136.26921875 -20.41375 136.9446875 -20.76171875 137.640625 C-22.75390625 141.625 -24.74609375 145.609375 -26.73828125 149.59375 C-27.39828125 149.59375 -28.05828125 149.59375 -28.73828125 149.59375 C-30.37504382 151.5537781 -30.37504382 151.5537781 -31.73828125 153.59375 C-31.40828125 154.25375 -31.07828125 154.91375 -30.73828125 155.59375 C-29.1115544 154.47124844 -27.48695543 153.34566267 -25.86328125 152.21875 C-24.95835938 151.59226563 -24.0534375 150.96578125 -23.12109375 150.3203125 C-19.86962806 147.96433244 -18.8797377 147.230304 -17.98828125 143.21875 C-17.7361918 139.56345293 -18.00821546 138.61471103 -19.73828125 135.59375 Z M-33.73828125 155.59375 C-33.40828125 156.25375 -33.07828125 156.91375 -32.73828125 157.59375 C-32.40828125 156.93375 -32.07828125 156.27375 -31.73828125 155.59375 C-32.39828125 155.59375 -33.05828125 155.59375 -33.73828125 155.59375 Z M-8.86328125 223.40625 C-9.95253906 223.90189453 -11.04179688 224.39753906 -12.1640625 224.90820312 C-25.60647133 230.36226296 -25.60647133 230.36226296 -34.73828125 240.59375 C-35.39828125 240.59375 -36.05828125 240.59375 -36.73828125 240.59375 C-36.73828125 241.25375 -36.73828125 241.91375 -36.73828125 242.59375 C-37.39828125 242.59375 -38.05828125 242.59375 -38.73828125 242.59375 C-46.09214306 255.17789854 -49.62673526 267.27528472 -46.49609375 281.91796875 C-42.52907078 295.92524057 -32.84620963 306.74958946 -20.33984375 313.98046875 C-12.45997754 317.92040185 -4.35277394 319.24745125 4.26171875 320.59375 C5.26976562 320.779375 6.2778125 320.965 7.31640625 321.15625 C18.51268962 322.8193584 29.38050236 321.29818909 40.33691406 318.99511719 C42.03345435 318.64134851 43.73706967 318.32187944 45.44140625 318.0078125 C54.33068779 316.15286757 67.28643026 311.80919271 73.26171875 304.59375 C68.35748642 306.14245495 63.58212186 307.84302044 58.82373047 309.79931641 C43.76051448 315.97724744 28.60693931 318.940386 12.26171875 318.59375 C12.26171875 317.60375 12.26171875 316.61375 12.26171875 315.59375 C13.59396484 315.46419922 13.59396484 315.46419922 14.953125 315.33203125 C31.58672018 313.50250363 48.10050892 310.55754897 63.50341797 303.8293457 C68.84456124 301.52888913 72.70137248 300.74030124 78.26171875 302.59375 C80.61310729 301.46704444 80.61310729 301.46704444 82.94921875 299.78125 C83.75746094 299.23855469 84.56570312 298.69585937 85.3984375 298.13671875 C86.01332031 297.62753906 86.62820312 297.11835938 87.26171875 296.59375 C87.26171875 295.93375 87.26171875 295.27375 87.26171875 294.59375 C84.93594323 292.9433968 82.59531056 291.38603361 80.19921875 289.84375 C73.98888612 285.72288816 68.37253467 281.26956609 62.94921875 276.15625 C62.00840454 275.27018066 62.00840454 275.27018066 61.04858398 274.36621094 C58.65028863 272.06126142 56.45770711 269.85720276 54.46875 267.18359375 C54.07042969 266.65894531 53.67210937 266.13429688 53.26171875 265.59375 C52.60171875 265.59375 51.94171875 265.59375 51.26171875 265.59375 C51.02453125 265.06265625 50.78734375 264.5315625 50.54296875 263.984375 C48.88793491 260.89632405 46.85623747 258.1409028 44.76171875 255.34375 C44.35824219 254.78945313 43.95476562 254.23515625 43.5390625 253.6640625 C42.49721704 252.26805835 41.38426463 250.92572608 40.26171875 249.59375 C39.60171875 249.59375 38.94171875 249.59375 38.26171875 249.59375 C38.06835938 248.97886719 37.875 248.36398437 37.67578125 247.73046875 C37.28519531 246.51810547 37.28519531 246.51810547 36.88671875 245.28125 C36.50386719 244.08048828 36.50386719 244.08048828 36.11328125 242.85546875 C35.27340064 240.36650472 35.27340064 240.36650472 33.26171875 237.59375 C30.67791698 237.34344023 30.67791698 237.34344023 28.26171875 237.59375 C25.59580938 242.14801184 24.94608693 245.33321963 25.26171875 250.59375 C24.14796875 251.109375 23.03421875 251.625 21.88671875 252.15625 C18.49552729 253.83399735 15.54938451 255.78003492 12.51171875 258.03125 C4.87260333 263.49615564 -3.32047815 267.05041521 -12.73828125 267.59375 C-9.92450348 264.51822546 -7.3637181 262.75102757 -3.61328125 260.96875 C6.06183944 255.82075798 13.66919795 248.06628705 17.26171875 237.59375 C19.14831782 229.90442953 18.35493919 221.45534079 18.26171875 213.59375 C9.38854481 213.59375 -1.01185714 219.72384787 -8.86328125 223.40625 Z " fill="#A702A7" transform="translate(120.73828125,90.40625)"/>
<path d="M0 0 C0.33 0.99 0.66 1.98 1 3 C2.70711489 3.98487398 4.41652103 4.96632906 6.14453125 5.9140625 C9.05855566 7.61953363 10.97033009 9.29377346 13 12 C13.70712954 16.94990676 13.58786877 18.92561914 11.1875 23.3125 C7.67088608 27.63291139 7.67088608 27.63291139 6 29 C5.34 29 4.68 29 4 29 C8.21115317 33.33987125 8.21115317 33.33987125 13 37 C13.66 37 14.32 37 15 37 C15 36.01 15 35.02 15 34 C14.01 33.34 13.02 32.68 12 32 C12.495 30.515 12.495 30.515 13 29 C15.43787385 29.1409349 17.87517853 29.28754542 20.3125 29.4375 C21.00279297 29.47681641 21.69308594 29.51613281 22.40429688 29.55664062 C25.47161535 29.74927415 28.06968152 30.02322717 31 31 C31.34546748 35.22822152 30.52620593 37.34855939 28.125 40.8125 C27.59132812 41.60269531 27.05765625 42.39289063 26.5078125 43.20703125 C26.01023438 43.79871094 25.51265625 44.39039063 25 45 C24.34 45 23.68 45 23 45 C25.31881505 47.67901932 27.31814468 48.66204403 30.6875 49.6875 C31.89986328 50.06455078 31.89986328 50.06455078 33.13671875 50.44921875 C33.75160156 50.63097656 34.36648437 50.81273437 35 51 C35 52.32 35 53.64 35 55 C27.20212531 55.38072806 21.70226088 55.12214892 15.0703125 50.71875 C14.38710937 50.4815625 13.70390625 50.244375 13 50 C10.90639297 51.11212898 10.90639297 51.11212898 8.8125 52.875 C1.64991363 57.51524912 -5.80057004 56.93452373 -14 56 C-20.28672039 54.4213962 -24.50410873 50.34729786 -28 45 C-31.66593254 38.09697987 -31.79751351 31.53721267 -29.9375 24.0625 C-26.49925961 13.65182795 -19.02476465 7.56795799 -9.53125 2.74609375 C-3.63719512 0 -3.63719512 0 0 0 Z M-10 9 C-12.21818327 11.66956302 -12.21818327 11.66956302 -11.875 13.9375 C-10.73641572 16.62130581 -9.2097799 18.12503523 -7 20 C-6.34 20 -5.68 20 -5 20 C-4.938125 20.598125 -4.87625 21.19625 -4.8125 21.8125 C-3.6763243 24.87143458 -1.82669858 25.55041099 1 27 C5.0858891 22.84761502 5.0858891 22.84761502 6.5 17.3125 C6.26403635 14.06379285 6.26403635 14.06379285 4.625 12.0625 C3.04459814 10.81758355 3.04459814 10.81758355 1 11 C0.67 10.01 0.34 9.02 0 8 C-4.03401451 7.08317852 -6.53097368 6.52212406 -10 9 Z M-16 20 C-18.22551912 26.67655736 -18.74406757 37.11419473 -15.80078125 43.671875 C-12.78829732 47.2231155 -9.3289923 49.70407194 -4.6328125 50.30078125 C0.69914044 50.32569692 4.35405756 49.93427943 9 47 C7.4114658 42.71095765 4.56872632 40.67654474 1 38 C0.34 38 -0.32 38 -1 38 C-1 37.34 -1 36.68 -1 36 C-3.33333333 33.33333333 -3.33333333 33.33333333 -6 31 C-6.66 31 -7.32 31 -8 31 C-8.3403125 29.948125 -8.3403125 29.948125 -8.6875 28.875 C-10.3268081 25.28413464 -12.34963697 22.92219514 -15 20 C-15.33 20 -15.66 20 -16 20 Z M21 35 C18.19744677 37.9063515 18 38.78825048 18 43 C21.75376152 41.74874616 22.24073289 40.4347596 24 37 C24 36.34 24 35.68 24 35 C23.01 35 22.02 35 21 35 Z " fill="#920192" transform="translate(221,291)"/>
<path d="M0 0 C7.52341647 6.59875076 12.58060632 14.92278605 13.44140625 25.0078125 C13.7810764 32.31542653 13.67677176 39.97846959 9 46 C6.25 47.5625 6.25 47.5625 4 48 C4 48.66 4 49.32 4 50 C3.34 50 2.68 50 2 50 C2 50.66 2 51.32 2 52 C-12.44624629 60.04304523 -25.00348909 62.86894149 -41.0078125 58.9140625 C-47.02090479 57.07716486 -50.75724522 53.49232859 -55 49 C-55.5775 49.515625 -56.155 50.03125 -56.75 50.5625 C-59 52 -59 52 -61.25 51.6875 C-61.8275 51.460625 -62.405 51.23375 -63 51 C-62.59862455 45.38074374 -60.82025541 42.91343237 -57 39 C-56.34 39 -55.68 39 -55 39 C-54.75894531 38.42765625 -54.51789063 37.8553125 -54.26953125 37.265625 C-52.75110661 34.55582102 -50.98548407 32.83556537 -48.6875 30.75 C-47.92824219 30.04359375 -47.16898437 29.3371875 -46.38671875 28.609375 C-43.6500401 26.76402049 -42.23147644 26.65683436 -39 27 C-39.25 28.875 -39.25 28.875 -40 31 C-41.32467746 31.6837045 -42.65863633 32.34964186 -44 33 C-44.68720306 34.32286589 -45.35057929 35.65818222 -46 37 C-46.99264053 38.39548933 -48.01450457 39.77058822 -49.0625 41.125 C-51.23226195 43.93627263 -51.23226195 43.93627263 -53 47 C-52.34 47.0825 -51.68 47.165 -51 47.25 C-47.72219385 48.06945154 -45.11829512 49.36732728 -42.16015625 50.96484375 C-33.95658235 54.89603197 -24.5822042 55.56765197 -15.80078125 53.1015625 C-13.46691554 52.16268928 -11.22453706 51.17246189 -9 50 C-9.70125 49.443125 -10.4025 48.88625 -11.125 48.3125 C-15.89556064 44.47530992 -20.57168893 40.53374965 -25.2109375 36.53955078 C-26.40043288 35.51594845 -27.59313574 34.49606126 -28.7890625 33.47998047 C-43.18671703 21.17934115 -43.18671703 21.17934115 -45 13 C-45.02301019 7.76134739 -43.92828576 4.1791738 -40.6875 0.0625 C-29.38233524 -8.61355667 -11.80638681 -8.33811221 0 0 Z M-37 6 C-38.40469235 10.40136937 -38.02585009 12.92328932 -36 17 C-34.0936257 19.01690881 -34.0936257 19.01690881 -31.8125 20.8125 C-28.80184082 23.37660207 -26.06247955 25.92493622 -23.5 28.9375 C-14.54917363 39.66635094 -14.54917363 39.66635094 -2 45 C3.54554229 35.87668849 4.06197791 25.85151883 1.78515625 15.5078125 C0.0577123 9.99030496 -2.45378576 5.64975661 -7.4375 2.5625 C-16.82562778 -1.5550999 -29.50133728 -1.93976053 -37 6 Z " fill="#9B029B" transform="translate(357,259)"/>
<path d="M0 0 C0.99 0.495 0.99 0.495 2 1 C2 1.66 2 2.32 2 3 C3.0725 2.94199219 4.145 2.88398437 5.25 2.82421875 C37.91723533 1.6599552 77.31503427 9.07173893 106 25 C106 25.99 106 26.98 106 28 C100.74830086 27.49083249 96.15175587 26.13589647 91.17016602 24.42236328 C75.8650656 19.1582824 60.34092987 15.81982591 44.49121094 12.68994141 C42.33634299 12.26409128 40.18297002 11.83049115 38.03222656 11.38427734 C31.35252673 9.99903423 24.81433002 9.35191376 18 9 C16.32164062 8.88398437 16.32164062 8.88398437 14.609375 8.765625 C13.00835937 8.69601563 13.00835937 8.69601563 11.375 8.625 C10.41335937 8.57601562 9.45171875 8.52703125 8.4609375 8.4765625 C5.76154576 8.7558729 5.76154576 8.7558729 4.34375 11.40625 C3.67859375 12.69015625 3.67859375 12.69015625 3 14 C-0.15350317 16.0566325 -1.96767396 17.09384782 -5.75 16.75 C-8 16 -8 16 -10 15 C-10 14.34 -10 13.68 -10 13 C-10.66 13 -11.32 13 -12 13 C-12.36738281 12.51273438 -12.73476562 12.02546875 -13.11328125 11.5234375 C-16.1216132 9.09434959 -19.48932641 9.55895429 -23.1875 9.625 C-24.39200806 9.63696411 -24.39200806 9.63696411 -25.62084961 9.64916992 C-32.92510414 9.81953783 -39.77393662 11.00494608 -46.91455078 12.56347656 C-50.75858372 13.36810439 -54.63048859 14.01850069 -58.5 14.6875 C-59.94795161 14.94120691 -61.3958716 15.19509436 -62.84375 15.44921875 C-63.8853125 15.63097656 -64.926875 15.81273438 -66 16 C-66.33 14.68 -66.66 13.36 -67 12 C-41.02753956 4.24038071 -41.02753956 4.24038071 -28.52734375 3.7734375 C-27.53790771 3.73645752 -26.54847168 3.69947754 -25.52905273 3.66137695 C-23.54075485 3.59647322 -21.55185564 3.5476052 -19.56274414 3.51635742 C-18.64485107 3.49162354 -17.72695801 3.46688965 -16.78125 3.44140625 C-15.95689453 3.42795166 -15.13253906 3.41449707 -14.28320312 3.40063477 C-8.32498305 2.35514298 -6.77372737 -0.43701467 0 0 Z M-6 8 C-5.67 8.99 -5.34 9.98 -5 11 C-3.68 10.34 -2.36 9.68 -1 9 C-1.33 8.34 -1.66 7.68 -2 7 C-4.0745356 6.8509288 -4.0745356 6.8509288 -6 8 Z " fill="#CC05CC" transform="translate(234,60)"/>
<path d="M0 0 C0 1.32 0 2.64 0 4 C-33.00589713 18.31686534 -63.28790824 23.78294588 -99.25 22.75 C-100.33657394 22.72188736 -100.33657394 22.72188736 -101.44509888 22.69320679 C-109.1623984 22.47855371 -116.51708927 22.02870024 -124 20 C-124.5625 18.0625 -124.5625 18.0625 -125 16 C-124 15 -124 15 -121.98828125 14.97827148 C-121.10527344 15.02540283 -120.22226562 15.07253418 -119.3125 15.12109375 C-118.31661865 15.16975586 -117.3207373 15.21841797 -116.29467773 15.26855469 C-115.20743408 15.32430664 -114.12019043 15.38005859 -113 15.4375 C-91.67468426 16.3740693 -71.12897698 16.3792648 -50 13 C-48.65566895 12.78754639 -48.65566895 12.78754639 -47.28417969 12.57080078 C-40.36717765 11.40146859 -33.71828059 9.62839473 -27 7.625 C-25.99710937 7.33367187 -24.99421875 7.04234375 -23.9609375 6.7421875 C-17.99288099 4.98415535 -12.17055943 3.01252704 -6.375 0.74755859 C-4 0 -4 0 0 0 Z " fill="#880188" transform="translate(387,357)"/>
<path d="M0 0 C0.495 0.99 0.495 0.99 1 2 C-1.70140971 5.71443835 -5.72956698 6.24356259 -10 7 C-15.18680964 7.71410603 -20.25604582 8.16350291 -25.49609375 8.31640625 C-26.19423691 8.33727798 -26.89238007 8.35814972 -27.61167908 8.37965393 C-29.88684671 8.4455629 -32.1621118 8.50473635 -34.4375 8.5625 C-35.2240094 8.58334656 -36.0105188 8.60419312 -36.82086182 8.62567139 C-57.76737805 9.17310296 -78.74470167 9.44789274 -99.6875 8.625 C-100.56003418 8.59422363 -101.43256836 8.56344727 -102.33154297 8.53173828 C-106.88754361 8.31112423 -110.7092346 7.70521533 -115 6 C-115 5.01 -115 4.02 -115 3 C-111.21639764 1.77972221 -107.47994592 1.88035227 -103.55126953 1.91821289 C-102.80573822 1.92127945 -102.06020691 1.92434601 -101.29208374 1.92750549 C-99.67265881 1.93465399 -98.05324257 1.94404058 -96.43384171 1.95540047 C-93.84829378 1.97288974 -91.26280873 1.9831258 -88.67721558 1.99131775 C-81.32462601 2.0156499 -73.97211888 2.05062616 -66.61962891 2.09594727 C-39.88536494 2.38432797 -39.88536494 2.38432797 -13.24560547 0.43530273 C-8.81313516 -0.08908898 -4.46058289 -0.07051758 0 0 Z " fill="#850085" transform="translate(369,382)"/>
<path d="M0 0 C1.65 0.33 3.3 0.66 5 1 C5.06993164 1.60473145 5.13986328 2.20946289 5.21191406 2.83251953 C5.54136374 5.5989434 5.89544778 8.36168583 6.25 11.125 C6.35957031 12.07632813 6.46914062 13.02765625 6.58203125 14.0078125 C7.47881074 20.80445708 8.77977036 25.17010122 14.0625 29.8125 C18.97105429 32.82096876 24.43192576 32.47214665 30 32 C33.11937969 30.62747293 34.4897715 30.020457 36 27 C36.51444795 21.28973732 36.51444795 21.28973732 34.3125 16.1875 C32.07831958 13.89983225 32.07831958 13.89983225 29.25 12.4375 C28.13625 11.7259375 28.13625 11.7259375 27 11 C27 9.68 27 8.36 27 7 C33.08812814 7.21361853 36.08235643 8.29018107 40.5546875 12.4296875 C44.56881328 16.79098091 44.54168726 20.28747428 44.4453125 25.98046875 C43.7531157 30.67404881 41.67113718 33.13533689 38 36 C31.022777 40.4535466 24.44497447 40.34687571 16.58203125 38.72265625 C9.75931341 36.813121 5.27622901 31.95666654 1.8359375 25.9765625 C-2.14136565 18.27947942 -3.34408582 10.8723111 -1 2.375 C-0.67 1.59125 -0.34 0.8075 0 0 Z " fill="#BD04BD" transform="translate(78,133)"/>
<path d="M0 0 C5.11488331 0.15389914 9.09927708 1.26471598 13.0625 4.5 C16.69117577 9.18216228 16.71451187 13.20707582 16 19 C14.38809947 23.85315899 12.28449639 28.43100721 10 33 C6.66919348 32.69772786 5.2655715 32.2583939 2.83203125 29.890625 C2.16558594 29.01921875 1.49914062 28.1478125 0.8125 27.25 C0.13832031 26.38890625 -0.53585938 25.5278125 -1.23046875 24.640625 C-4.60851632 19.59965335 -5.76864327 15.05736789 -5 9 C-3.93541446 5.48343357 -2.63226013 2.63226013 0 0 Z " fill="#A002A0" transform="translate(63,254)"/>
<path d="M0 0 C-0.33 0.99 -0.66 1.98 -1 3 C-14.28473099 8.49183752 -29.80715743 7.31122113 -43.8762207 7.26074219 C-47.42611821 7.25003433 -50.97550859 7.26067785 -54.52539062 7.2734375 C-81.87623919 7.29547204 -81.87623919 7.29547204 -89 5 C-90.37280273 2.92285156 -90.37280273 2.92285156 -91 1 C-90.67 0.67 -90.34 0.34 -90 0 C-86.92941232 0.08978774 -83.88154515 0.23925754 -80.81640625 0.42578125 C-70.44428183 0.98647713 -60.10174621 1.18621661 -49.71557617 1.18530273 C-46.93458004 1.18750231 -44.15397433 1.20581108 -41.37304688 1.22460938 C-31.30218403 1.2539537 -21.43571257 0.85759211 -11.43431091 -0.38594055 C-7.3691741 -0.87329723 -4.0084386 -1.15196607 0 0 Z " fill="#830083" transform="translate(361,396)"/>
<path d="M0 0 C3.60570972 1.26867564 5.43623501 2.32348202 7.875 5.25 C9.3659283 8.89449141 9.60726036 11.08654435 9 15 C6.65893529 19.24478767 3.72223044 22.14442288 -0.9375 23.625 C-6.29029838 24.56660124 -10.03102007 22.34719679 -14.375 19.375 C-16.76872898 15.87647303 -17.22217404 12.20649518 -17 8 C-14.04425229 0.39554109 -7.39460535 -1.08666243 0 0 Z M-9 8 C-9.40373601 11.16259871 -9.54458662 13.14012639 -7.8125 15.875 C-5.34492892 17.40659584 -3.85480169 17.42822025 -1 17 C0.91666667 15.91666667 0.91666667 15.91666667 2 14 C2.58333333 11.5 2.58333333 11.5 2 9 C0.32683688 7.07845307 0.32683688 7.07845307 -2 6 C-6.04622502 5.63019987 -6.04622502 5.63019987 -9 8 Z " fill="#BD04BD" transform="translate(203,146)"/>
<path d="M0 0 C1.11375 0.1546875 1.11375 0.1546875 2.25 0.3125 C2.01329586 5.92884365 -1.66807459 8.89684527 -5.375 12.6875 C-5.97957031 13.32171875 -6.58414062 13.9559375 -7.20703125 14.609375 C-9.04040492 16.52484003 -10.89369208 18.41927963 -12.75 20.3125 C-13.39420898 20.98442383 -14.03841797 21.65634766 -14.70214844 22.34863281 C-15.63462402 23.30914551 -15.63462402 23.30914551 -16.5859375 24.2890625 C-17.14587402 24.86994629 -17.70581055 25.45083008 -18.28271484 26.04931641 C-19.75 27.3125 -19.75 27.3125 -21.75 27.3125 C-21.75 27.9725 -21.75 28.6325 -21.75 29.3125 C-25.68281242 32.4025669 -28.77125936 33.83833422 -33.75 34.3125 C-33.17667654 30.67068477 -31.81870972 29.02822695 -29.1875 26.5 C-28.46949219 25.80648438 -27.75148437 25.11296875 -27.01171875 24.3984375 C-24.22847392 21.83150703 -21.3653895 19.36748399 -18.4921875 16.90234375 C-16.30388079 14.90539121 -14.58308798 12.63441144 -12.75 10.3125 C-9.75 7.8125 -9.75 7.8125 -6.75 5.3125 C-6.069375 4.384375 -5.38875 3.45625 -4.6875 2.5 C-2.75 0.3125 -2.75 0.3125 0 0 Z " fill="#890089" transform="translate(272.75,348.6875)"/>
<path d="M0 0 C-0.14453125 2.34106445 -0.14453125 2.34106445 -1 5 C-3.44921875 6.43041992 -3.44921875 6.43041992 -6.6875 7.54296875 C-7.86699219 7.95466309 -9.04648438 8.36635742 -10.26171875 8.79052734 C-11.49535156 9.18965332 -12.72898438 9.5887793 -14 10 C-15.74216797 10.56581787 -15.74216797 10.56581787 -17.51953125 11.14306641 C-21.00240788 12.23903895 -24.49682225 13.28341713 -28 14.3125 C-29.18722656 14.67150391 -30.37445313 15.03050781 -31.59765625 15.40039062 C-32.74105469 15.73876953 -33.88445312 16.07714844 -35.0625 16.42578125 C-36.59583984 16.88078003 -36.59583984 16.88078003 -38.16015625 17.3449707 C-40.88735359 17.97401734 -43.21422577 18.12874622 -46 18 C-45.44498826 14.34255373 -45.44498826 14.34255373 -43.49291992 12.83984375 C-38.21448936 10.3972396 -32.90520305 8.58481497 -27.3125 7 C-25.54801672 6.48753098 -23.7836939 5.97450919 -22.01953125 5.4609375 C-21.16568848 5.2144043 -20.3118457 4.96787109 -19.43212891 4.71386719 C-15.10652488 3.44423597 -10.82010254 2.05229635 -6.53125 0.6640625 C-4 0 -4 0 0 0 Z " fill="#9B029B" transform="translate(215,277)"/>
<path d="M0 0 C0 1.32 0 2.64 0 4 C-17.49 4 -34.98 4 -53 4 C-53 2.68 -53 1.36 -53 0 C-35.27769589 -1.28555574 -17.72007266 -1.38592747 0 0 Z " fill="#830083" transform="translate(451,399)"/>
<path d="M0 0 C0.30395015 5.30224145 -0.78853824 9.71566552 -2.25 14.75 C-2.47816406 15.5433374 -2.70632813 16.3366748 -2.94140625 17.15405273 C-7.09711256 31.35223227 -7.09711256 31.35223227 -9 34 C-11.625 34.74609375 -11.625 34.74609375 -14 35 C-15.03454002 23.41315177 -10.2047528 11.23003136 -5 1 C-3 0 -3 0 0 0 Z " fill="#9C029C" transform="translate(296,265)"/>
<path d="M0 0 C15.84 0 31.68 0 48 0 C48 0.99 48 1.98 48 3 C42.37650786 3.90676906 36.81303214 4.30821027 31.125 4.5625 C29.75420288 4.6251001 29.75420288 4.6251001 28.35571289 4.68896484 C22.38301113 4.94299 16.41561395 5.10326859 10.4375 5.125 C9.39456787 5.13188843 9.39456787 5.13188843 8.33056641 5.13891602 C5.07483074 5.1287748 2.11349914 4.9982211 -1 4 C-0.67 2.68 -0.34 1.36 0 0 Z " fill="#860086" transform="translate(408,383)"/>
<path d="M0 0 C2.58040316 1.94422081 3.89826367 3.97562575 5 7 C5.37358436 10.38192156 5.30644981 13.61543213 5 17 C0.5603025 16.45817899 -2.10893646 14.81894031 -5.6875 12.1875 C-6.64011719 11.50042969 -7.59273438 10.81335938 -8.57421875 10.10546875 C-10.91192221 8.07644755 -12.02653306 6.89762966 -13 4 C-13 2.68 -13 1.36 -13 0 C-8.50949062 -1.3033678 -4.49016188 -1.39818208 0 0 Z " fill="#A202A2" transform="translate(94,256)"/>
<path d="M0 0 C0.625 1.8125 0.625 1.8125 1 4 C0.01 5.485 0.01 5.485 -1 7 C-2.32 7 -3.64 7 -5 7 C-5.33 4.69 -5.66 2.38 -6 0 C-3.50907189 -1.24546405 -2.58919267 -0.7767578 0 0 Z " fill="#CC05CC" transform="translate(157,74)"/>
<path d="M0 0 C1.32 0.66 2.64 1.32 4 2 C3.67 3.32 3.34 4.64 3 6 C0.525 5.01 0.525 5.01 -2 4 C-1.34 2.68 -0.68 1.36 0 0 Z " fill="#8E018E" transform="translate(150,338)"/>
<path d="M0 0 C0.33 0.66 0.66 1.32 1 2 C-0.65 2 -2.3 2 -4 2 C-2.68 1.34 -1.36 0.68 0 0 Z " fill="#BE04BE" transform="translate(415,152)"/>
<path d="M0 0 C0.66 0 1.32 0 2 0 C2 0.66 2 1.32 2 2 C1.34 2 0.68 2 0 2 C0 1.34 0 0.68 0 0 Z " fill="#800080" transform="translate(63,477)"/>
<path d="M0 0 C0.66 0 1.32 0 2 0 C2 0.66 2 1.32 2 2 C1.34 2 0.68 2 0 2 C0 1.34 0 0.68 0 0 Z " fill="#BC04BC" transform="translate(426,162)"/>
<path d="M0 0 C2 1 2 1 2 1 Z " fill="#800080" transform="translate(25,467)"/>
<path d="M0 0 C2 1 2 1 2 1 Z " fill="#8E018E" transform="translate(159,344)"/>
<path d="" fill="#930193" transform="translate(0,0)"/>
<path d="M0 0 C2 1 2 1 2 1 Z " fill="#C205C2" transform="translate(67,137)"/>
<path d="M0 0 C2 1 2 1 2 1 Z " fill="#CC06CC" transform="translate(246,75)"/>
<path d="" fill="#CE06CE" transform="translate(0,0)"/>
<path d="" fill="#800080" transform="translate(0,0)"/>
<path d="" fill="#8B018B" transform="translate(0,0)"/>
<path d="" fill="#A903A9" transform="translate(0,0)"/>
<path d="" fill="#B003B0" transform="translate(0,0)"/>
<path d="" fill="#C005C0" transform="translate(0,0)"/>
<path d="" fill="#CA05CA" transform="translate(0,0)"/>
</svg>
